<svg width="32" height="34" viewBox="0 0 32 34" fill="none" xmlns="http://www.w3.org/2000/svg">
<path d="M29.7675 23.0778C27.615 23.0778 25.5325 22.7182 23.59 22.0708C22.9775 21.855 22.295 22.0169 21.8225 22.5024L19.075 26.0448C14.1225 23.6172 9.485 19.0319 7.0175 13.7633L10.43 10.7783C10.9025 10.2749 11.0425 9.57358 10.85 8.94422C10.2025 6.94826 9.87 4.80844 9.87 2.5967C9.87 1.62569 9.0825 0.816513 8.1375 0.816513H2.0825C1.1375 0.816513 0 1.24807 0 2.5967C0 19.3017 13.5275 33.1835 29.7675 33.1835C31.01 33.1835 31.5 32.0506 31.5 31.0617V24.858C31.5 23.887 30.7125 23.0778 29.7675 23.0778Z" fill="black"/>
</svg>
